<svg width="18" height="18" viewBox="0 0 18 18" fill="none" xmlns="http://www.w3.org/2000/svg">
  <path fill-rule="evenodd" clip-rule="evenodd" d="M14.5504 2.15823C14.7215 2.08622 14.9087 2.06139 15.0927 2.08631C15.2766 2.11123 15.4505 2.185 15.5962 2.29993C15.742 2.41487 15.8543 2.56677 15.9214 2.73982C15.9885 2.91288 16.008 3.10076 15.9779 3.28392L14.4078 12.808C14.2555 13.7267 13.2475 14.2535 12.4049 13.7959C11.7001 13.4131 10.6534 12.8232 9.71184 12.2078C9.24107 11.8997 7.79899 10.9131 7.97622 10.2111C8.12853 9.61092 10.5516 7.35538 11.9362 6.01438C12.4797 5.48753 12.2318 5.18361 11.5901 5.66823C9.99638 6.87146 7.43761 8.70123 6.59161 9.2163C5.8453 9.67046 5.45622 9.74799 4.99099 9.67046C4.14222 9.52922 3.35507 9.31046 2.71261 9.04392C1.84446 8.68392 1.88669 7.49038 2.71192 7.14284L14.5504 2.15823Z" fill="#4A4A4A"/>
</svg>